<?xml version="1.0" encoding="UTF-8"?>
<svg xmlns="http://www.w3.org/2000/svg" viewBox="0 0 5898 2000">
  <defs>
    <style>
      .cls-1 {
        fill: #000005;
      }

      .cls-2 {
        mix-blend-mode: multiply;
        opacity: .5;
      }

      .cls-2, .cls-3 {
        fill: #70c0fd;
      }

      .cls-4 {
        fill: #bee1f4;
      }

      .cls-5 {
        fill: #fdbeb9;
      }

      .cls-6 {
        isolation: isolate;
      }

      .cls-7 {
        fill: #02042d;
      }

      .cls-8 {
        fill: #07085b;
      }

      .cls-9 {
        fill: #333;
      }

      .cls-10 {
        fill: #224887;
      }

      .cls-11 {
        fill: #ffc0bb;
      }

      .cls-12 {
        fill: #632d07;
      }

      .cls-13 {
        fill: #8bcdf2;
      }

      .cls-14 {
        fill: #4f2305;
      }

      .cls-15 {
        fill: #3660ac;
      }

      .cls-16 {
        fill: none;
      }

      .cls-17 {
        fill: #153768;
      }

      .cls-18 {
        fill: #e6f7ff;
      }

      .cls-19 {
        fill: #0e2c51;
      }

      .cls-20 {
        fill: #feb546;
      }

      .cls-21 {
        fill: #f9b7b4;
      }

      .cls-22 {
        fill: #cee6ef;
      }

      .cls-23 {
        fill: #f4afab;
      }

      .cls-24 {
        fill: #f99893;
      }
    </style>
  </defs>
  <g class="cls-6">
    <g id="Layer_1" data-name="Layer 1">
      <rect class="cls-16" width="5898" height="2000"/>
      <g>
        <path class="cls-11" d="m593.05,1432.01s4.18,3.93,3.93,15.24c-.14,6.39-8.36,12.54-3.93,15.98,4.43,3.44,17.46,13.77,14.75,19.91-2.7,6.15-4.67,8.2-4.67,8.2,0,0,27.04,15.64,21.14,32.85-5.9,17.21-14.68,28.27-25.04,27.78-10.36-.49-35.19-.49-54.12-15.73-18.93-15.24-20.9-74-20.9-74,0,0,8.11-24.83,10.08-24.83s50.4-14.26,50.4-14.26l8.36,8.85Z"/>
        <path class="cls-24" d="m619.6,1524.41c-4.22-.04-8.44,0-12.66.1-8.43.23-16.86.77-25.2,1.91,8.4-.59,16.8-.58,25.19-.25,4.19.17,8.38.41,12.56.72,1.23.09,2.46.21,3.7.31.34-.89.66-1.79.98-2.71-1.52-.03-3.05-.07-4.57-.08Z"/>
        <path class="cls-11" d="m543.1,1895.24c13.76-4.02,21.22-33.13,23.98-46.67l-33.76-28.53c-2.49,12.33-3.87,20-3.87,20-6.16,10.94-13.77,21.4-20.44,21.59-14.06.4-7.61,20.03-3.23,24.82,4.39,4.79,19.3,14.06,37.32,8.79Z"/>
        <path class="cls-5" d="m253.75,1931.74h0l-88.46-1.85c-30.81-1.6-18.96-22.5-11.93-40.84.43-1.11.85-2.34,1.28-3.67,12.11-.65,28.93-1.61,41.41-2.33.3,4.32,1.33,7.47,2.5,9.27,4.44,6.85,29.72,16.86,44.61,22.29,6.57,2.4,10.62,10.14,10.58,17.13Z"/>
        <path class="cls-5" d="m364.38,1944.03h0,0l-88.46-1.85c-30.81-1.6-18.96-22.5-11.93-40.84.43-1.11.85-2.34,1.28-3.66,12.11-.65,28.93-1.61,41.41-2.33.3,4.32,1.33,7.47,2.5,9.27,4.44,6.85,29.72,16.86,44.61,22.29,6.57,2.4,10.62,10.14,10.58,17.13Z"/>
        <path class="cls-5" d="m601.66,1936.75h0c0,1.34-1.09,2.42-2.43,2.42h-100.51c-38.08-1.6-29.83-24.36-21.14-42.69.53-1.11,1.06-2.34,1.59-3.66,14.97-.65,2.17-12.63,17.58-13.35.37,4.32,32.98,20.82,34.42,22.62,5.49,6.85,44.21,21.49,62.61,26.92,0,0,7.92.75,7.88,7.75Z"/>
        <path class="cls-17" d="m485.12,1677.87s78.18,91.95,77.69,102.77c-.49,10.82-12.78,6.39-12.78,6.39,0,0,40.32,45.73,27.54,48.19,0,0-5.41-.49-9.34-1.97,0,0,9.1,23.6-5.9,14.51,0,0-3.55,24.58-24.76,3.93,0,0-11.62,16.96-16.54-1.48,0,0-7.38,13.03-13.52-8.85-6.15-21.88-18.44-56.05-18.44-56.05l-21.64-73.76,17.7-33.68Z"/>
        <path class="cls-17" d="m268.28,1768.34s-72.77,27.21-45.89,32.12c0,0-123.25,112.44-64.25,86.54,0,0-5.57,25.57,25.24,8.2,0,0,8.2,17.05,11.47,10.16,0,0,9.18,18.36,19.34,3.93,10.16-14.42,69.17-51.14,75.07-64.91,5.9-13.77,35.4-77.69,35.4-77.69,0,0-11.8-22.95-19.67-19.67s-36.71,21.31-36.71,21.31Z"/>
        <path class="cls-10" d="m466.93,1451.35s-100.31,0-86.54,19.34c0,0-46.55,13.44-24.59,24.26,0,0-121.94,51.63-158.33,160.3,0,0-16.72,39.01,1.97,29.17,0,0-8.52,41.19,10.82,19.94,0,0-4.59,34.48,55.4,73.16,0,0,31.47,25.9,31.47,31.8s-30.49,49.5-10.49,44.25c0,0-43.6,42.29-30.16,40.98,0,0-10.82,28.52,3.61,25.9l31.31-3.07s-1.97,22.33,14.51,5.12c0,0,8.36,10.08,15-2.95,0,0,26.55,15,20.16,2.21-6.39-12.79-11.06-12.29,4.67-39.09,15.73-26.8,38.6-45.97,37.86-63.92,0,0,9.59,16.96,10.57-9.1,0,0,10.57,20.41,10.08-10.33-.49-30.73-34.42-77.2-62.45-98.34l70.81-49.91s85.31-.74,111.54-88.92c0,0,2.13,21.96,14.42-7.38,0,0,2.29,21.96,12.29-1.97,0,0,11.8,16.55,13.77,3.61,1.97-12.95-5.24-45.48-5.24-45.48,0,0,13.77,18.32,4.3-21.64,0,0,15.49,10.94,0-24.83,0,0-6.88-11.55,3.69-19.05,10.57-7.5,32.82-6.64,26.67-16.1,0,0,14.18-2.26-4.3-8.55-8.27-2.82-16.91-4.36-25.64-4.7-4.24-.16-9.2-.16-14.44.22,0,0,16.47-8.6,5.53-9.46-10.94-.86-19.67,4.18-19.67,4.18,0,0,1.94-5.13-1.84-7.01-4.3-2.13-58.23,21.47-66.75,47.37Z"/>
        <path class="cls-15" d="m483.79,1514.5c-11.66-24.69-43.68-30.95-63.64-12.32-6.32,5.9-12.64,13.89-18.13,24.74-20.65,40.81-38.35,129.81-18.68,125.39,0,0-3.93,44.75,6.88,36.39,0,0,11.8,159.31,70.81,211.43,0,0,13.77,34.91,19.67,5.41,0,0,39.83,23.11,31.47,0,0,0,19.18,10.33,24.59,4.92s-18.19-19.67-18.19-29.99-21.64-146.53-32.94-167.18c0,0,14.42,7.21,4.92-17.7,0,0,12.9,18.43,7.99-15.6-3.01-20.89-4.58-41.97-4.41-63.07.26-31.76-.15-74.2-3.91-85.89-1.78-5.53-3.88-11.16-6.41-16.51Z"/>
        <path class="cls-24" d="m607.94,1479.75c-6.64,1.94-19.61,6.16-15.63,8.56,5.29,3.2,10.82,3.04,10.82,3.04,0,0,1.97-2.06,4.67-8.2.45-1.03.46-2.18.14-3.4Z"/>
        <path class="cls-10" d="m581.35,1455.42c-4.86,1.52-9.34,1.02-10.01-1.12-.67-2.13,2.73-5.09,7.59-6.61,4.86-1.52,9.34-1.02,10.01,1.12.67,2.14-2.73,5.1-7.59,6.61Z"/>
        <path class="cls-9" d="m583.99,1469.62c.58,2.7-1.11,5.17-3.28,4.78-1.21-.21-2.26-1.39-2.58-2.89-.58-2.7,1.11-5.17,3.28-4.79,1.21.21,2.26,1.39,2.58,2.89Z"/>
        <path class="cls-11" d="m541.67,1442.21s-.25-14.38-19.42-13.52c-19.18.86-30.36,22-25.57,40.07,2.95,11.12,18.32,25.81,39.21,14.14,20.9-11.68,5.78-40.69,5.78-40.69Z"/>
        <path class="cls-24" d="m539.46,1456.11c-.44-3.86-1.47-7.92-3.72-11.29-2.23-3.38-5.71-5.89-9.51-6.99-3.79-1.13-7.81-1.28-11.61-.54,3.85-.31,7.77.08,11.3,1.44,3.55,1.32,6.58,3.77,8.48,6.94,1.94,3.19,2.73,6.87,3.1,10.67.2,1.87.29,3.77.18,5.62-.02.33-.05.66-.08.99-.13-.38-.26-.76-.38-1.15-.25-.61-.48-1.22-.77-1.82-1.13-2.37-2.71-4.6-4.82-6.31-2.08-1.75-4.75-2.74-7.38-3.04-1.33-.25-2.64-.11-3.96-.08-1.31.1-2.62.33-3.89.75-2.55.78-4.91,2.49-6.33,4.79-1.44,2.31-1.9,5.06-1.66,7.65.23,2.6,1.14,5.09,2.55,7.24,1.4,2.13,3.43,3.93,5.86,4.65-2.33-.98-4.11-2.87-5.31-4.99-1.2-2.14-1.83-4.56-1.92-6.97-.1-2.4.5-4.81,1.8-6.72,1.3-1.91,3.31-3.26,5.57-3.87,1.12-.34,2.3-.53,3.48-.58,1.19,0,2.39-.1,3.54.15,2.31.33,4.53,1.18,6.3,2.69,3.57,2.96,5.51,7.79,6.19,12.41l.53,3.61,1.51-3.23c.94-2.01,1.19-4.07,1.28-6.08.06-2.01-.07-3.99-.33-5.96Z"/>
        <path class="cls-10" d="m552.12,1438.9s-26.55,5.78-13.15,11.06c0,0-22.86,8.85-7.38,18.07,0,0-29.63,13.03-7.5,25.57,22.13,12.54,31.47-9.83,31.35-10.82-.12-.98,1.11-1.48-.49-11.06-1.6-9.59-.12-17.58-.12-20.77s-2.7-12.05-2.7-12.05Z"/>
      </g>
      <g>
        <path class="cls-5" d="m996.05,1936.98h0,0l-118.15-1.85c-41.15-1.6-25.32-22.5-15.93-40.84.57-1.11,1.14-2.34,1.71-3.67,16.17-.65,38.64-1.61,55.31-2.33.4,4.32,1.78,7.47,3.34,9.27,5.93,6.85,39.7,16.86,59.58,22.29,8.78,2.4,14.19,10.14,14.14,17.13Z"/>
        <path class="cls-5" d="m1171.76,1936.98h0l-118.15-1.85c-41.15-1.6-25.32-22.5-15.93-40.84.57-1.11,1.14-2.34,1.71-3.67,16.17-.65,38.64-1.61,55.31-2.33.4,4.32,1.78,7.47,3.34,9.27,5.93,6.85,39.7,16.86,59.58,22.29,8.78,2.4,14.19,10.14,14.14,17.13Z"/>
        <path class="cls-17" d="m992,1226.67s-137.56,170.76-99.86,169.12c0,0-8.52,34.75,10.16,16.06,0,0,9.51,74.96,48.52,77.64,39.01,2.67,52.45-195.98,52.45-195.98l-11.27-66.85Z"/>
        <path class="cls-11" d="m1232.34,1085.3s3.98,3.75,3.75,14.52c-.13,6.09-7.96,11.94-3.75,15.22,4.22,3.28,16.63,13.12,14.05,18.97-2.58,5.85-4.45,7.81-4.45,7.81,0,0,25.76,14.9,20.14,31.3-5.62,16.39-13.98,26.93-23.85,26.47-9.87-.47-33.53-.47-51.56-14.99-18.03-14.52-19.91-70.5-19.91-70.5,0,0,7.73-23.65,9.6-23.65s48.01-13.58,48.01-13.58l7.96,8.43Z"/>
        <path class="cls-24" d="m1246.52,1130.77c-6.33,1.84-18.68,5.86-14.89,8.16,5.04,3.04,10.3,2.9,10.3,2.9,0,0,1.87-1.96,4.45-7.81.43-.98.43-2.08.13-3.24Z"/>
        <path class="cls-24" d="m1257.63,1173.31c-4.02-.04-8.04,0-12.06.1-8.03.21-16.06.74-24.01,1.82,8-.56,16.01-.55,24-.24,3.99.16,7.98.39,11.97.69,1.17.09,2.35.2,3.52.3.32-.84.63-1.71.94-2.59-1.45-.03-2.9-.07-4.35-.08Z"/>
        <path class="cls-10" d="m1221.19,1107.59c-4.63,1.45-8.9.97-9.53-1.07-.63-2.03,2.6-4.85,7.23-6.3,4.63-1.45,8.9-.97,9.53,1.07.63,2.03-2.6,4.85-7.23,6.3Z"/>
        <path class="cls-17" d="m980.32,1594.11s-81.62,164.72-53.1,159.8c0,0-21.93,23.6-6.05,21.14,0,0-86.89,124.12-54.92,124.26,0,0-2.95,23.74,14.75,4.57,0,0,33.75,36.6,38.76,7.48,0,0,16.87,15.14,13.64.88-3.23-14.26,53.81-90.97,53.81-90.97,0,0,5.41,15.74,13.77-12.78,0,0,7.64,22.62,10.46-19.67l41.17-115.06-72.28-79.66Z"/>
        <path class="cls-9" d="m1223.71,1121.13c.55,2.57-1.05,4.92-3.12,4.56-1.15-.2-2.15-1.32-2.46-2.75-.56-2.57,1.05-4.92,3.13-4.56,1.15.2,2.15,1.32,2.46,2.75Z"/>
        <path class="cls-10" d="m1104.88,1114.2s-12.78,25.57-26.22,35.73c-13.44,10.16-85.56,27.54-51.47,28.52,0,0-40.98,26.88-21.31,27.86,0,0-35.4,49.5-49.17,82.28-13.77,32.78-21.63,69.9-2.62,56.59,0,0-55.07,146.65,14.42,257.45l84.57,127.19s-25.08,68.35-4.92,56.55c0,0-22.13,54.58-6.39,48.19,0,0-18.19,83.59,6.88,60.48,0,0,2.95,32.95,17.7,6.88,0,0,28.03,36.78,28.52,10.03,0,0,13.6,22.42,10-13.47,0,0,33.76-99.33,35.73-131.78,0,0,16.23,21.63,14.75-41.79,0,0,25.27,23.6.1-49.66-25.17-73.26-65-109.16-68.44-122.43-3.44-13.28-1.97-44.75-1.97-44.75l63.43-166.69s9.83,28.03,12.78-22.13c0,0,19.56,29.01,5.36-60.48,0,0-6.34-40.32.87-47.86,0,0,2.62,26.22,12.13-8.2,0,0,0,24.91,12.46-1.97,0,0,12.13,23.93,13.44-1.31,1.31-25.24-6.23-37.04-6.23-37.04,0,0,12.46,14.1,4.59-16.72,0,0,12.13,12.46,6.56-6.23-5.57-18.69-15.08-37.37,2.95-47.2,0,0,11.47-6.56,20.65-3.61,0,0,10.16-5.9-7.54-12.13,0,0,30.81-9.83-36.06-8.85,0,0,12.78-9.18,2.62-10.16-1.78-.17-4.37-.27-7.55-.18-28.09.81-53.91,15.68-69.2,39.26l-11.43,17.63Z"/>
        <path class="cls-11" d="m1175.58,1659.32c12.88-6.3,15.28-36.25,15.7-50.06l-38.12-22.38c-.35,12.57-.41,20.37-.41,20.37-4.21,11.83-9.93,23.43-16.47,24.75-13.79,2.79-4.1,21.03,1.04,25,5.14,3.97,21.4,10.57,38.27,2.32Z"/>
        <path class="cls-15" d="m1085.17,1186.98s-43.38-10.82-70.43,82.12c0,0-11.31,47.7,7.87,32.94,0,0-9.83,37.86,3.93,25.08,0,0,0,109.65,30.49,147.02,30.49,37.37,81.13,108.18,84.57,118.99,3.44,10.82,17.21,43.76,24.59,17.21,0,0,17.7,39.34,15.73,1.47,0,0,15.24,15.73,9.34-20.16-5.9-35.89-25.57-72.28-25.57-72.28,0,0,15.73,7.87-.98-27.54-16.72-35.4-38.84-50.65-35.4-122.43,3.44-71.79,18.48-173.6-44.14-182.42Z"/>
        <path class="cls-11" d="m1175.29,1097.52s-.25-14.38-19.42-13.52c-19.18.86-30.36,22-25.57,40.07,2.95,11.12,18.32,25.81,39.21,14.14,20.9-11.68,5.78-40.69,5.78-40.69Z"/>
        <path class="cls-24" d="m1173.09,1111.42c-.44-3.86-1.47-7.92-3.72-11.29-2.23-3.38-5.71-5.89-9.51-6.99-3.79-1.13-7.81-1.28-11.61-.54,3.85-.32,7.77.08,11.3,1.44,3.55,1.32,6.58,3.77,8.48,6.94,1.94,3.19,2.73,6.87,3.1,10.67.2,1.87.29,3.77.18,5.62-.02.33-.05.66-.08.99-.13-.38-.26-.76-.38-1.15-.25-.61-.48-1.22-.77-1.82-1.13-2.37-2.71-4.6-4.82-6.31-2.08-1.75-4.75-2.74-7.38-3.04-1.33-.24-2.64-.11-3.96-.08-1.31.1-2.62.33-3.89.75-2.55.78-4.91,2.49-6.33,4.79-1.44,2.31-1.9,5.06-1.66,7.65.23,2.6,1.14,5.1,2.55,7.24,1.4,2.13,3.43,3.93,5.86,4.65-2.33-.98-4.11-2.87-5.31-4.99-1.2-2.14-1.83-4.57-1.92-6.97-.1-2.4.5-4.81,1.8-6.73,1.3-1.91,3.31-3.26,5.57-3.87,1.12-.34,2.3-.53,3.48-.58,1.19,0,2.39-.1,3.54.15,2.31.33,4.53,1.18,6.3,2.69,3.57,2.96,5.51,7.79,6.19,12.41l.53,3.61,1.51-3.23c.94-2.01,1.19-4.07,1.27-6.08.06-2.01-.07-3.99-.33-5.96Z"/>
        <path class="cls-10" d="m1185.74,1094.21s-26.55,5.78-13.15,11.06c0,0-22.86,8.85-7.38,18.07,0,0-29.63,13.03-7.5,25.57,22.13,12.54,31.47-9.83,31.35-10.82-.12-.98,1.11-1.47-.49-11.06-1.6-9.59-.12-17.58-.12-20.77s-2.7-12.05-2.7-12.05Z"/>
      </g>
      <g>
        <path class="cls-17" d="m1781.74,900.8s-100.75,69.27-86.54,73.26c0,0-45.24,80.64-27.04,77.2,0,0-33.93,101.29-19.18,104.24,0,0-11.31,103.75,10.82,93.92,22.13-9.83,101.29-160.3,101.29-160.3,0,0,1.48-89.49,1.48-93.42s19.18-94.9,19.18-94.9Z"/>
        <path class="cls-23" d="m1621.44,1468.23s-13.77,94.06-56.05,156.85c-42.29,62.78,0,100.81,0,100.81l108.83-76.05,88.07-156.04-72-31.47-68.84,5.9Z"/>
        <path class="cls-11" d="m1654.44,1482s81.84,74.04,105.23,104.88c23.38,30.83,52.5,87.87,52.5,87.87l57.43,15.74s-5.24-74.08-5.24-76.05,21.14-58.35,21.14-58.35l-29.01-86.54-154.04-7.21-48,19.67Z"/>
        <path class="cls-11" d="m1799.44,873.27s-79.66,66.87-109.65,144.07c-29.99,77.2-37.86,242.9-37.86,242.9,0,0,106.7,52.12,167.18,45.24l44.75-125.38,21.63-139.64s-30.98-106.7-24.09-116.53c6.88-9.83,16.72-38.35,16.72-38.35l-46.22-38.35-32.45,26.06Z"/>
        <path class="cls-11" d="m1917.45,767.06s18.69,9.34,27.54,28.52c8.85,19.18-3.93,41.8,0,49.17s26.3,18.36,24.33,26.22c-1.97,7.87-11.22,14.75-11.22,14.75l-38.19,15.08-38.85-25.08-9.34-26.06v-57.04l11.8-25.57h33.93Z"/>
        <path class="cls-10" d="m1645.26,1269.58s-70.04,163.25-61.68,226.68l23.6-17.21.98,17.21,16.23-14.75,14.75,71.3,59.5-57.04,5.9,26.29,11.8-10.56,6.39,18.68,15.73-13.77,23.82,79.16,40.11-73.53,22.62,49.92,25.08-53.6,19.45,23.6v-35.89l22.34,24.59s-75.35-180.95-73.08-218.32l-42.96-6.26-55.56-12.92-52.12-23.6h-22.89Z"/>
        <path class="cls-24" d="m1805.37,964.25c12.57,23.83,11.8,58.13,9.19,84.67-2.24,22.98-6.31,45.76-10.83,68.45-9.26,46.11-18.56,84.26-20.65,102.42-1.34,11.69-1.52,23.42-1.21,35.1.46,15.53,1.89,30.96,3.81,46.32,2.08.35,4.18.69,6.3,1.02-2.12-15.8-3.74-31.65-4.32-47.52-.39-11.48-.26-22.97.92-34.33,1.96-18.67,12.03-62.23,19.39-102.19,2.11-11.41,4.06-22.86,5.76-34.35,1.68-11.49,3.15-23.03,4.04-34.63,2.09-27.22,2.04-61.77-11.2-85.62-11.21-20.43-29.97-23.48-44.3-16.93,14.98-6.34,32.89-2.01,43.09,17.6Z"/>
        <path class="cls-10" d="m1922.57,823.36c-7.58,2.5-14.62,1.83-15.71-1.5-1.1-3.33,4.16-8.06,11.74-10.56,7.58-2.5,14.62-1.83,15.71,1.5,1.1,3.33-4.16,8.06-11.74,10.56Z"/>
        <path class="cls-15" d="m1593.07,1401.42c-1.26,3.75,1,7.75,4.86,8.6,6.77,1.49,18.08,3.32,32.82,3.32,9.03,0,19.35-.69,30.7-2.55,37.1-6.11,92.67-26.61,149.01-89.16,2.48-2.76,2.23-7.03-.57-9.46h0c-2.73-2.38-6.86-2.12-9.29.58-53.47,59.37-105.71,78.93-140.51,84.82-28.06,4.75-49.52,1.6-59.28-.51-3.32-.72-6.65,1.15-7.73,4.38l-.15.44.15-.44Z"/>
        <path class="cls-15" d="m1800.64,1367.83c12.24,0,21.63-1.83,27.26-3.32,3.21-.85,5.08-4.86,4.03-8.6l.12.44-.12-.44c-.9-3.22-3.66-5.1-6.42-4.38-8.1,2.12-25.92,5.26-49.23.51-28.9-5.89-72.29-25.45-116.7-84.82-2.01-2.69-5.44-2.95-7.71-.58h0c-2.33,2.44-2.54,6.71-.48,9.46,46.79,62.55,92.94,83.05,123.75,89.16,9.43,1.87,18,2.55,25.5,2.55Z"/>
        <path class="cls-24" d="m1671.68,1234.96c.09,2.9.28,5.81.44,8.72.21,2.91.42,5.82.77,8.77.43,2.99,1.09,5.9,1.83,8.73,1.01,3.88,2.15,7.71,3.33,11.51,1.55.6,3.16,1.22,4.83,1.85-1.61-4.76-3.15-9.54-4.48-14.34-.78-2.76-1.44-5.5-1.87-8.24-.38-2.8-.64-5.67-.88-8.53-.43-5.74-.78-11.51-.99-17.28-1.84-46.19.63-92.65,7.93-138.41-2.13,11.39-4.12,22.81-5.58,34.32-1.55,11.49-2.62,23.05-3.57,34.61-.87,11.57-1.48,23.16-1.85,34.76-.32,11.6-.42,23.21-.18,34.83.04,2.9.14,5.81.27,8.71Z"/>
        <path class="cls-24" d="m1969.32,870.97c.24-.94.11-1.93-.28-2.95-3.19.38-7.34,1.62-12.74,4.27-10.1,4.94-5.3,6.53,2.29,10.33l2.76.31s6-4.08,7.97-11.95Z"/>
        <path class="cls-17" d="m1858.45,830.98s-9.18,69.49,7.54,59.99c0,0-3.93,38.03,15.41,28.52,0,0,5.25,62.94,24.59,51.14,0,0,7.21,34.75,27.54-11.15,0,0,20.32,26.55,27.21-41.63,0,0,17.7,8.19,2.29-35.73,0,0-5.25-5.24-11.47,7.54,0,0-2.02-17.05-13.14,2.29,0,0-3.58-18.68-18.33-4.92,0,0-8.52-30.81-18.36-18.03,0,0-10.49-25.57-19.01-13.44-8.52,12.13-6.23-50.48-6.23-50.48,0,0,32.78,3.93,10.82-18.36,0,0,49.68,10.16,25.33-11.8,0,0,40.06-1.95,16.52-14.9-8.61-4.73-18.33-7.07-28.15-7.07h-17.31s16.39-23.93-23.27,2.29c0,0,4.59-18.36-1.64-17.05-6.23,1.31-22.62,25.57-22.62,25.57,0,0-39.01,5.25-20,13.44,0,0-54.09,26.88-15.73,25.57,0,0-24.59,28.19-2.95,19.67,0,0-6.23,49.83,5.24,56.71,11.47,6.88,13.11-5.9,13.11-5.9,0,0,5.9,16.39,12.13,8.19,0,0,14.38,17.37,13.58-14.42l16.9-36.06Z"/>
        <g>
          <path class="cls-9" d="m1955.09,1551.39l-400.6-110.4c-5.77-1.59-9.31-7.39-8.08-13.25h0c1.34-6.41,7.82-10.35,14.13-8.6l403.82,112.29c.68.19,1.34.44,1.97.75,5.78,2.85,33.05,17.4-7.56,19.59-1.24.07-2.48-.06-3.67-.39Z"/>
          <path class="cls-3" d="m1935.87,1593.98s28.06-50.91,36.1-82.54c8.04-31.63,20.25-66.73,27.2-66.03,6.95.7,35.8,10.13,27.02,75.13-8.77,65.01-25.18,118.88-52.65,118.5-27.47-.38-60.86-8.75-37.68-45.06Z"/>
          <path class="cls-15" d="m1968.14,1520.53c9.26,34.73,34.98,61.75,42.85,69.4,1.23,1.19,3.19,1.12,4.33-.16h.01c1.07-1.21,1.02-3.04-.12-4.17-7.4-7.27-32.47-33.75-41.26-66.68-.42-1.56-2.01-2.5-3.59-2.13h0c-1.66.39-2.66,2.08-2.22,3.73Z"/>
          <path class="cls-15" d="m1951.57,1561.57c26.4-22.36,61.24-29.41,71.56-31.08,1.61-.26,3.08.9,3.26,2.54v.02c.17,1.55-.88,2.97-2.4,3.22-9.74,1.63-43.79,8.61-68.83,29.81-1.19,1.01-2.94.86-3.95-.32h0c-1.07-1.24-.9-3.14.35-4.2Z"/>
          <path class="cls-2" d="m1967.58,1603.41c12,1.19,25.1,7.88,23.91,19.87-1.19,12-13.33,15.29-13.33,15.29h0c-1.5.33-3.03.49-4.6.47-24.69-.34-54.15-7.14-43.03-34.88,6.23-5.8,7.65-6.15,14.95-6.66,7.38-.52,10.11,4.72,22.11,5.91Z"/>
          <path class="cls-15" d="m1952.78,1537.54c-1.87,5.96-2.28,11.25-2.34,14.17-.03,1.3,1.06,2.33,2.36,2.25h.01c1.14-.07,2.04-1.01,2.07-2.15.11-4.31,1.08-14.76,7.44-23.9.67-.96.46-2.26-.45-2.98h0c-1-.79-2.47-.57-3.2.48-2.8,4.02-4.66,8.22-5.89,12.13Z"/>
          <path class="cls-15" d="m1943.32,1535.66c-1.87,5.96-2.28,11.25-2.34,14.17-.03,1.3,1.06,2.33,2.36,2.25h.01c1.14-.07,2.04-1.01,2.07-2.15.11-4.31,1.08-14.77,7.44-23.9.67-.96.46-2.26-.45-2.98h0c-1-.79-2.47-.57-3.2.48-2.8,4.02-4.66,8.22-5.88,12.13Z"/>
          <path class="cls-15" d="m1935.21,1534.21c-1.87,5.96-2.28,11.25-2.34,14.17-.03,1.3,1.06,2.33,2.36,2.25h.01c1.14-.07,2.04-1.01,2.07-2.15.11-4.31,1.08-14.76,7.44-23.9.66-.96.46-2.26-.45-2.98h0c-1-.79-2.47-.57-3.2.48-2.8,4.02-4.66,8.22-5.89,12.13Z"/>
        </g>
        <path class="cls-17" d="m1654.63,1261.04c12.71,6.29,74.71,35.55,164.48,44.44,0,0,.05.03.13.08,6.16,3.9,3.51,13.46-3.78,13.71-24.63.85-98.51-1.06-170.2-47.4,0,0-6.19-9.54,2.14-11.37,2.34-.51,5.08-.53,7.23.53Z"/>
        <path class="cls-9" d="m1930.9,838.73c.18,2.82-1.96,5.26-4.79,5.44-2.83.18-5.27-1.96-5.45-4.78-.18-2.82,1.96-5.26,4.79-5.44,2.83-.18,5.27,1.96,5.45,4.78Z"/>
        <path class="cls-11" d="m1759.12,946.04s37.37-18.06,51.14,37.19c13.77,55.25-10.82,145.73-25.57,222.43-14.75,76.71,25.57,197.67,22.62,252.74-2.95,55.07-11.03,64.58-20.6,63.59-9.56-.98-12.19-9.83-21.04-10.16-8.85-.33-17.7-3.93-20.32-9.51-2.62-5.57-15.41-2.29-14.1-10.82,1.31-8.52,17.7-45.57,16.39-49.17-1.31-3.61-66.87-161.61-70.81-189.8-3.93-28.19-11.8-251.75,82.28-306.5Z"/>
        <path class="cls-11" d="m1858.45,830.98s-20.32-7.54-25.24,12.13c-3.65,14.59,5.72,26.89,22.86,29.83l2.38-41.96Z"/>
        <path class="cls-23" d="m1455.9,1811.12s-19.34,19.34-21.96,28.85c-2.62,9.51,11.8,31.8,34.42,36.06,22.62,4.26,41.96,48.51,59.33,54.74,17.37,6.23,52.45,7.21,56.71,4.26,4.26-2.95,4.26-7.97-8.52-13.33-12.78-5.36-32.12-41.74-42.61-55.18-10.49-13.44-10.49-62.94-10.49-62.94l-66.87,7.54Z"/>
        <path class="cls-17" d="m1845.44,1022.25s-17.31,29.67-4.85,29.17c0,0-8.19,26.03,2.29,25.23,0,0-20.16,71.64,4.75,56.89,0,0-18.19,69.17-2.46,57.86,0,0-15.98,65.15-1.72,60.48,14.26-4.67,25.32-71.3,25.32-71.3,0,0,2.95,22.13,13.03-30.24,0,0,8.85,19.67,10.82-35.16,0,0,23.84,10.81,2.21-54.58,0,0,15.63,6.11-17.39-49.19,0,0,1.42,27.31.55,36.65,0,0-7.5-18.68-10.45-2.21,0,0-6.64-35.89-11.31-24.83,0,0-5.94-27.94-10.8,1.23Z"/>
        <path class="cls-24" d="m1744.83,1443.31s0-.04-.02-.06c.02.06.05.11.02.06Z"/>
        <path class="cls-11" d="m2102.12,1845.81c-.57-5.15-4.99-7.54-15.78,1.17-10.79,8.7-52,8.43-68.81,11.27-9.65,1.63-28.11-5.42-42.09-11.73l-58-128.5-15.73,19.17-35.54,52.95s15.13,41.59,38.16,66.06c23.03,24.47,27.69,43.79,27.69,43.79,0,0,7.83,26.21,14.94,33.03,7.12,6.83,33.59,4.73,48.08-13.15,14.5-17.88,62.63-13.86,76.36-26.19,13.74-12.33,31.27-42.72,30.7-47.87Z"/>
        <path class="cls-17" d="m1566.37,1620.01s-49.17,41.3-23.6,44.91c0,0-35.4,16.72-19.67,22.95,0,0-30.81,16.39-40.65,44.25-9.83,27.86-10.16,43.6-20.32,57.37-10.16,13.77-36.06,48.84,0,26.22,0,0-9.83,38.68,12.13,12.46,0,0,8.52,16.06,15.41,5.57,0,0,18.03,27.54,26.55,21.63,8.52-5.9,6.23-23.27,6.23-23.27,0,0,.98,21.63,6.88,20.32,5.9-1.31,13.77-44.25,21.31-47.2,0,0-1.64,18.69,20.98-17.37,22.62-36.06,24.26-39.34,24.26-39.34,0,0-2.62,28.52,26.22-28.19,0,0-6.91,58.37,52.12-70.48,0,0,4.59-11.47-21.96,5.9-26.55,17.37-32.12,20-32.12,20,0,0,5.9-21.63-11.15-10.82,0,0,5.57-26.88-20.65-1.64,0,0-8.52-23.28-20-5.58,0,0,10.81-49.51-1.97-37.7Z"/>
        <path class="cls-17" d="m1784.61,1624.94s-7.78,59.65,7.46,57.68c0,0-.98,56.55,16.23,40.81,0,0,86.05,165.21,73.76,88.51,0,0,35.9,55.56,27.04,4.92,0,0,36.39,39.83,40.32,25.08,3.93-14.75-28.52-89.98-28.52-89.98,0,0,34.42,46.71,23.6-3.44,0,0,5.9-11.31-28.52-95.39l-14.85-53.41c-4.5-22.31-12.08-43.89-22.51-64.12h0s-30.99,16.72-19.68,70.32c0,0-18.19-12.29-3.93,39.34,0,0-23.97-12.78-13.46,29.99,0,0-44.73-79.96-56.94-50.31Z"/>
      </g>
      <g>
        <path class="cls-23" d="m2764.84,837.75s32.83-25.4,57.72,25.81c24.9,51.21,19.56,144.81,20.99,222.91,1.43,78.1,65.9,188.1,74.4,242.59,8.5,54.49,2.56,65.46-7,66.48-9.56,1.02-13.96-7.1-22.68-5.59-8.73,1.51-18.13-.19-21.85-5.1-3.72-4.91-15.55.94-16.03-7.67-.48-8.61,7.89-48.24,5.87-51.5-2.03-3.26-98.85-144.28-108.53-171.05-9.68-26.77-63.62-243.87,17.11-316.89Z"/>
        <path class="cls-17" d="m2547.67,1644.23l-23.11,85.07,56.04-29.4,2.59,24.97s50.71-29.77,96.65-85.56v31.71s84.2-46.46,79.28-137.92c-4.92-91.46-79.28-54.09-79.28-54.09l-132.16,165.21Z"/>
        <path class="cls-11" d="m3082.53,1834.25c-.64-5.75-5.56-8.41-17.6,1.3-12.04,9.71-58,9.4-76.75,12.57-10.76,1.82-31.35-6.05-46.95-13.08l-26.47-58.64c-25.42-56.33-45.41-114.96-59.69-175.09l-3.42-14.39-43.13-172.36-171.81-8.04-53.54,21.94s91.29,82.59,117.37,116.98c14.74,19.44,31.52,48.21,43.33,69.56,0,0,50.62,159.05,118.04,230.85,25.66,27.32,30.89,48.85,30.89,48.85,0,0,8.73,29.23,16.67,36.84,7.94,7.61,37.46,5.27,53.63-14.67,16.17-19.94,69.85-15.46,85.18-29.21,15.32-13.75,34.88-47.65,34.24-53.4Z"/>
        <path class="cls-11" d="m2744.92,749.46s-88.85,74.59-122.31,160.7c-33.46,86.11-42.23,270.94-42.23,270.94,0,0,119.02,58.14,186.48,50.46l49.91-139.86,24.13-155.76s-34.55-119.01-26.87-129.98c7.68-10.97,18.65-42.78,18.65-42.78l-51.55-42.78-36.2,29.07Z"/>
        <path class="cls-11" d="m2876.55,630.99s20.84,10.42,30.71,31.81c9.87,21.39-4.39,46.62,0,54.85,4.39,8.23,29.33,20.48,27.14,29.25-2.19,8.78-12.51,16.45-12.51,16.45l-42.6,16.82-43.33-27.97-10.42-29.07v-63.62l13.16-28.52h37.84Z"/>
        <path class="cls-23" d="m2703.48,1441.61l-80.31-35.1-76.78,6.58s-15.36,104.92-62.52,174.95c-2.87,4.26-5.39,8.42-7.59,12.48,0,0,0,0,0,.01-54.7,69.88-114.52,195.02-114.52,195.02,0,0-21.57,21.57-24.5,32.18-2.93,10.6,13.16,35.47,38.39,40.22s46.8,54.11,66.18,61.06c19.38,6.95,58.5,8.04,63.26,4.75,4.75-3.29,4.75-8.89-9.51-14.86-14.26-5.98-35.83-46.56-47.53-61.55-6.78-8.69-9.63-30.89-10.83-48.02l168.06-193.66,98.23-174.04Z"/>
        <path class="cls-10" d="m2882.26,693.79c-8.45,2.79-16.3,2.04-17.53-1.67-1.23-3.71,4.63-8.99,13.09-11.78,8.46-2.79,16.3-2.04,17.53,1.67,1.23,3.71-4.64,8.99-13.09,11.78Z"/>
        <path class="cls-10" d="m2551.91,1183.5s-39.78,82.05-31.75,164.66c8.03,82.61-44.81,180.03-97.57,333.44,0,0,75.92,27.54,170.62-41.79v27.24s83-13.47,195.41-139.34l12.29,63.92s34.21-83.88,31.96-104.24c-6.94-62.94-69.9-200.62-65.32-243.89l-215.64-59.99Z"/>
        <path class="cls-15" d="m2514.73,1338.56c-1.41,4.18,1.11,8.65,5.42,9.59,7.55,1.66,20.16,3.7,36.6,3.7,10.07,0,21.58-.77,34.25-2.85,41.39-6.81,103.37-29.68,166.2-99.45,2.77-3.08,2.49-7.84-.64-10.56h0c-3.05-2.65-7.66-2.36-10.36.64-59.64,66.22-117.91,88.04-156.73,94.61-31.3,5.29-55.24,1.79-66.12-.57-3.7-.8-7.42,1.29-8.62,4.88l-.17.5.16-.49Z"/>
        <path class="cls-15" d="m2746.25,1301.1c13.66,0,24.13-2.04,30.4-3.7,3.57-.95,5.67-5.42,4.5-9.59l.14.49-.14-.5c-1-3.59-4.09-5.68-7.16-4.88-9.04,2.36-28.92,5.87-54.92.58-32.24-6.57-80.64-28.39-130.17-94.61-2.24-3-6.07-3.29-8.6-.64h0c-2.6,2.72-2.83,7.48-.53,10.56,52.19,69.77,103.66,92.63,138.04,99.45,10.51,2.08,20.08,2.85,28.44,2.85Z"/>
        <path class="cls-24" d="m2934.4,746.9c.26-1.05.13-2.16-.31-3.3-3.56.42-8.19,1.81-14.21,4.76-11.26,5.51-5.92,7.29,2.56,11.52l3.07.35s6.69-4.55,8.89-13.33Z"/>
        <path class="cls-17" d="m2810.74,702.29s-10.24,77.52,8.41,66.91c0,0-5.07,36.95,16.5,26.34,0,0,2.03,22.51,23.6,9.34,0,0,1.15,39.58,33.6,22.62,0,0,41.55,16.96,31.96-28.32,0,0,18.93-14.46,2.56-39.85,0,0-5.85-5.85-12.8,8.41,0,0-2.26-19.01-14.66,2.56,0,0-3.99-20.84-20.44-5.48,0,0-9.51-34.37-20.48-20.11,0,0-11.7-28.52-21.21-14.99-9.51,13.53-6.95-56.31-6.95-56.31,0,0,36.56,4.39,12.07-20.48,0,0,55.41,11.33,28.25-13.16,0,0,44.68-2.18,18.43-16.62-9.6-5.28-20.45-7.88-31.4-7.88h-19.3s18.28-26.69-25.96,2.56c0,0,5.12-20.48-1.83-19.01-6.95,1.46-25.23,28.52-25.23,28.52,0,0-43.51,5.85-22.3,14.99,0,0-60.33,29.98-17.55,28.52,0,0-27.42,31.44-3.29,21.94,0,0-6.95,55.58,5.85,63.26,12.8,7.68,14.63-6.58,14.63-6.58,0,0,6.58,18.28,13.53,9.14,0,0,16.04,19.38,15.15-16.09l18.85-40.22Z"/>
        <g>
          <path class="cls-9" d="m2866.78,1563.56l-577.05-368.01c-5.88-3.74-7.84-11.41-4.47-17.52h0c3.69-6.68,12.25-8.86,18.68-4.75l579.98,371.21c5.66,3.61-7.38,24.18-17.14,19.06Z"/>
          <path class="cls-15" d="m2852.54,1538.69c-3.46,5.04-5.18,10-5.95,12.81-.34,1.25.59,2.67,2.01,3.09h.01c1.26.38,2.45-.18,2.76-1.28,1.16-4.13,4.73-13.87,13.82-20.24.95-.67,1.05-2.01.23-3.06h0c-.9-1.15-2.54-1.5-3.58-.77-4,2.8-7.03,6.15-9.3,9.46Z"/>
          <polygon class="cls-3" points="2900.12 1538.18 2989.84 1627.01 2870.52 1583.21 2864.46 1544.6 2900.12 1538.18"/>
          <polygon class="cls-2" points="2989.84 1627.01 2900.12 1538.18 2864.46 1544.6 2989.84 1627.01"/>
          <path class="cls-15" d="m2870.1,1550.8c-4.12,6-6.39,11.75-7.45,14.99-.47,1.44.39,2.96,1.86,3.31h.01c1.3.31,2.62-.42,3.04-1.69,1.6-4.77,6.25-16.08,16.46-24.08,1.07-.84,1.29-2.37.51-3.48h0c-.85-1.22-2.56-1.47-3.73-.56-4.49,3.52-8,7.57-10.7,11.51Z"/>
          <path class="cls-15" d="m2862.73,1545.17c-3.63,5.29-5.49,10.45-6.34,13.37-.38,1.29.54,2.74,1.97,3.14h.01c1.27.36,2.49-.24,2.83-1.38,1.27-4.29,5.12-14.44,14.5-21.23.98-.71,1.11-2.1.3-3.17h0c-.88-1.17-2.54-1.5-3.62-.72-4.13,2.99-7.28,6.51-9.66,9.98Z"/>
          <path class="cls-15" d="m2880.5,1541.39c.78,25.61,14.73,49.2,19.11,56,.68,1.06,2.11,1.4,3.15.75h.01c.98-.61,1.25-1.88.62-2.87-4.1-6.44-17.68-29.54-18.42-53.82-.04-1.15-1.03-2.11-2.23-2.17h0c-1.27-.06-2.27.9-2.23,2.12Z"/>
          <path class="cls-15" d="m2864.62,1564.49c24.1-9.74,52.42-6.5,60.75-5.23,1.3.2,2.27,1.38,2.16,2.6h0c-.11,1.16-1.15,1.93-2.37,1.75-7.87-1.15-35.56-4.26-58.42,4.97-1.08.44-2.43-.09-3.04-1.17h0c-.64-1.14-.22-2.46.93-2.92Z"/>
        </g>
        <path class="cls-17" d="m2583.4,1181.98c14.18,7.01,83.33,39.65,183.46,49.57,0,0,.05.03.15.09,6.87,4.35,3.92,15.02-4.22,15.3-27.48.95-109.88-1.18-189.84-52.87,0,0-6.9-10.64,2.39-12.68,2.6-.57,5.67-.59,8.06.6Z"/>
        <path class="cls-9" d="m2891.55,710.93c.2,3.15-2.19,5.87-5.34,6.07-3.15.2-5.88-2.19-6.08-5.34-.2-3.15,2.19-5.87,5.34-6.07,3.16-.2,5.88,2.19,6.08,5.34Z"/>
        <path class="cls-11" d="m2727.19,790.4s45.9-6.07,41.17,57.26c-4.73,63.34-62.39,150.58-104.82,226.68-42.43,76.1-42,218.31-64.37,275.62-22.37,57.3-34.25,64.55-44.04,60.17-9.79-4.38-9.47-14.68-18.73-18.12-9.26-3.44-17.38-10.35-18.21-17.17-.83-6.82-15.52-7.81-11.15-16.38,4.37-8.57,34.67-42.08,34.54-46.36-.13-4.28-14.36-194.55-8.67-225.79,5.69-31.24,75.48-270.79,194.27-295.9Z"/>
        <path class="cls-11" d="m2810.74,702.29s-22.67-8.41-28.15,13.53c-4.07,16.28,6.38,29.99,25.49,33.28l2.66-46.81Z"/>
        <path class="cls-17" d="m2796.22,915.64s-19.31,33.09-5.41,32.54c0,0-9.14,29.04,2.56,28.14,0,0-22.49,79.91,5.3,63.45,0,0-20.29,77.15-2.74,64.54,0,0-17.83,72.67-1.92,67.46,15.91-5.21,28.25-79.53,28.25-79.53,0,0,3.29,24.68,14.53-33.73,0,0,9.87,21.94,12.07-39.21,0,0,26.59,12.06,2.47-60.88,0,0,17.43,6.81-19.39-54.87,0,0,1.58,30.46.62,40.88,0,0-8.37-20.84-11.66-2.47,0,0-7.4-40.04-12.61-27.7,0,0-6.63-31.17-12.04,1.37Z"/>
        <path class="cls-24" d="m2684,1385.29s-.01-.04-.02-.07c.03.06.05.12.02.07Z"/>
        <path class="cls-24" d="m2532.92,1086.3c1.38-7.55,3.33-14.99,5.3-22.41,1.99-7.42,4.19-14.78,6.46-22.11,4.55-14.67,9.53-29.21,14.9-43.61,5.35-14.4,11.19-28.63,17.46-42.67,6.27-14.04,12.98-27.89,20.26-41.45,21.03-39.35,50.11-81.93,86.87-106.91,22.91-15.58,50.61-28.24,71.51-10.12,21.66,17.68,15.99,58.02,8.16,84.85-5.55,18.76-13.2,36.73-21.56,54.27-8.4,17.54-17.6,34.64-27.09,51.56-9.55,16.89-19.39,33.59-29.18,50.3-24.95,42.87-34.03,55.17-47.08,105.36-2.43,9.37-4.58,18.81-6.54,28.29-1.98,9.48-3.82,18.99-5.53,28.53,2.94-19.15,6.29-38.26,10.82-57.13,12.21-51.16,21.66-64.06,45.73-106.55,9.6-16.83,19.24-33.63,28.57-50.59,9.34-16.95,18.48-34,26.74-51.46,8.23-17.45,15.74-35.29,21.12-53.74,7.13-24.79,12.95-64.08-6.98-80.38-19.02-16.63-45.51-3.93-66.42,10.18-36.03,24.28-65.5,66.97-86.41,105.03-14.8,26.8-27.37,54.82-38.65,83.33-5.63,14.26-10.87,28.68-15.69,43.24-2.41,7.28-4.71,14.6-6.89,21.95-2.16,7.36-4.3,14.73-5.87,22.25Z"/>
      </g>
      <g>
        <polygon class="cls-11" points="3582.54 612.88 3532.21 680.81 3595.49 717.22 3631.33 781.47 3641.43 634.18 3582.54 612.88"/>
        <path class="cls-24" d="m3637.11,697.17l4.32-62.99-58.89-21.3-16.53,22.3c9.76,12.24,43.16,52.24,71.1,61.99Z"/>
        <path class="cls-11" d="m3571.45,519.75s8.68-44.76,12.53-47.11c3.84-2.35,52.8-10.34,55.57-10.98,2.78-.64,22.67,27.3,22.67,27.3,0,0,12.93,18.95,11.83,19.93-1.09.98-26.82,23.47-27.95,23.68-1.12.2-45.53,10.5-45.53,10.5,0,0-31.99,11.82-31.23,7.2.76-4.62,2.1-30.51,2.1-30.51Z"/>
        <path class="cls-11" d="m3691.99,483.16s11.83,28.29,13.51,52.4c.6,8.67,3.38,17.04,7.81,24.51l11.09,18.72c2.13,3.6.1,8.23-4,9.1l-14.33,3.03s-17.24,60.39-33.02,67.88c-15.78,7.49-51.47,6.72-101.96-56.66,0,0-27.06,6.41-33.03-25.55-5.96-31.96,30.14-29.2,36.91-19.56,0,0,46.29-87.29,117.01-73.85Z"/>
        <path class="cls-9" d="m3690.65,550.4c.15,4.86-2.85,8.88-6.7,8.99-3.85.11-7.1-3.75-7.26-8.6-.15-4.86,2.85-8.88,6.7-8.99,3.85-.11,7.1,3.75,7.26,8.6Z"/>
        <path class="cls-9" d="m3698.22,528.85c-3.31-1.1-6.69-1.77-10.06-2.05-3.37-.25-6.74-.02-9.97.78-1.62.38-3.19.95-4.71,1.62-.77.32-1.5.72-2.25,1.1-.37.19-.72.43-1.08.63-.36.21-.73.41-1.07.66-2.81,1.85-5.38,4.1-7.85,6.55,1.65-3.02,3.93-5.76,6.71-8.01,1.39-1.13,2.9-2.13,4.54-2.93,1.62-.81,3.35-1.47,5.13-1.9,3.56-.88,7.29-.97,10.82-.32,1.77.31,3.49.81,5.14,1.44,1.64.65,3.23,1.42,4.65,2.43Z"/>
        <path class="cls-8" d="m3716.59,423.25c-16.78-8.59-47.33-15.48-77.89-14.22,6.81-5.3,10.92-9.46,9.04-10.67-15.25-9.9-61.02,20.71-75.58,30.99-3.09-3.63-13.73-14.74-23.73-8.72-11.86,7.14,11.94,15.69,11.94,15.69,0,0-16.45,2.86-19.77,11.9-2.46,6.68,7.6,4.87,13.02,3.47-1.7.66-4.02,2.07-6.46,4.36h0s-21.8,20.14-19.01,30.88c.67,2.59,2.95,2.69,6,1.34-2.06,11.43-5.33,33.03-1.15,35.59,2.4,1.46,4.54.07,6.22-2.04,4.07,17.01,9.6,30.23,9.6,30.23,19.68-4.46,37.62,15.94,37.62,15.94-6.17-26.37,10.38-77.94,10.38-77.94,0,0,77.82,27.07,63.93,5.52,0,0,90.82,24.53,69.44-17.15,0,0,33.72-4.45-8.25-35.51,0,0,24.68-4.29-5.35-19.65Z"/>
        <path class="cls-23" d="m3579.82,739.03s31.49-27.04,58.96,22.84c27.47,49.88,26.89,143.63,32.29,221.56,5.4,77.93,75.37,184.51,86.63,238.5,11.26,53.99,5.89,65.25-3.61,66.75-9.5,1.5-14.3-6.38-22.94-4.43-8.64,1.95-18.12.73-22.08-3.98-3.96-4.71-15.48,1.73-16.4-6.84-.92-8.57,5.43-48.58,3.24-51.73-2.19-3.15-106.05-139.07-117.08-165.31-11.03-26.24-75.93-240.32.98-317.35Z"/>
        <path class="cls-23" d="m3564.67,1437.08l-80.31-35.1-76.78,6.58s-15.36,104.92-62.52,174.95c-2.87,4.26-5.39,8.42-7.59,12.48,0,0,0,0,0,.01-54.7,69.88-114.52,195.02-114.52,195.02,0,0-21.57,21.57-24.5,32.18-2.92,10.6,13.16,35.47,38.39,40.22,25.23,4.75,46.8,54.11,66.18,61.06,19.38,6.95,58.5,8.04,63.25,4.75,4.75-3.29,4.75-8.89-9.51-14.86-14.26-5.98-35.83-46.56-47.53-61.55-6.78-8.69-9.63-30.89-10.83-48.02l168.05-193.66,98.23-174.04Z"/>
        <path class="cls-17" d="m3464.05,1147.99l-34.99,199.33-57.04,96.68h17.7l-8.55,28.52,15.43-5.59-5.9,57.39,60.97-18.36-2.95,58.69,57.04-47.87,10.82,26.97,57.04-119.41s-26.96-155.38-27.74-171.11c-.78-15.73-81.84-105.22-81.84-105.22Z"/>
        <path class="cls-11" d="m3905.43,1854.03c-13.17,8.1-58.72,1.98-77.72,2.76-10.91.44-30.34-9.97-44.91-18.92l-18.83-61.52c-18.09-59.1-30.5-119.78-37.05-181.24l-1.57-14.7-11.07-93.16-118.79-114.08c2.68,4.02-1.88,132.51,0,135.78,12.16,21.15,10.38,62.99,19.39,85.67,0,0,30.08,164.18,87.87,243.93,21.99,30.35,24.46,52.36,24.46,52.36,0,0,4.96,30.1,11.87,38.66,6.91,8.56,36.49,9.97,55.06-7.76,18.56-17.73,71.25-6.5,88.19-18.2,16.94-11.7,40.63-42.85,40.73-48.63.1-5.78-4.45-9.04-17.62-.94Z"/>
        <path class="cls-10" d="m3450.42,1051.33s10.18,165.95,75.08,258.51c64.91,92.56,61.95,239.41,61.95,239.41l15.73-4.25,12.56,22.04,37.64-42.67,7.81,20.63,12.79-16.55,11.8,11.63,13.77-10.2,14.75,19.37s19.67-64.6,12.78-111.13c-6.88-46.53-83.38-350.14-80.04-373.87l-141.95-9.16-54.7-3.76Z"/>
        <polygon class="cls-21" points="3643.02 1006.58 3643.02 1055.09 3518.13 1061.16 3471.07 1050.22 3482.48 987.65 3528.16 980.52 3643.02 1006.58"/>
        <path class="cls-17" d="m3458.18,1037.36c15.31,3.96,89.68,21.77,189.72,10.99,0,0,.06.02.16.06,7.62,2.86,6.91,13.9-1,15.84-26.7,6.55-107.8,21.32-196.64-12.91,0,0-8.93-9-.25-12.91,2.43-1.09,5.43-1.73,8.01-1.07Z"/>
        <path class="cls-10" d="m3471.41,871.04s-17.95-85.88,29.05-148.17l47-62.28,12.46,18.54,7.21-12.64,29.5,40.07,7.87-4.67s16.39,24.75,26.22,35.24c9.83,10.49,30.32,37.7,34.91,61.96,4.59,24.26-8.69,93.59-10,117.85-1.31,24.26,0,118.01,0,118.01l-17.7-18.16s-12.46,26.68-16.39,22.09c-3.93-4.59-21.63-22.09-21.63-22.09,0,0-30.72,25.78-31.42,22.62-.7-3.15-9.23-11.68-9.23-11.68l-13.77,6.56-6.56-17.5-34.75,14.88s-29.5-62.94-27.54-72.12c1.97-9.18-5.25-88.51-5.25-88.51Z"/>
        <path class="cls-11" d="m3558.8,706.85s42.18-7.3,36.08,55.58c-6.1,62.88-61.31,150.94-102.27,227.52-40.96,76.58-44.54,217.47-66.62,274.87-22.08,57.4-33.16,64.91-41.99,60.84-8.83-4.07-8.26-14.28-16.64-17.42-8.38-3.15-15.61-9.77-16.18-16.5-.57-6.73-13.98-7.31-9.75-15.92,4.24-8.61,32.91-42.66,32.91-46.89,0-4.23-7.7-192.36-1.62-223.46,6.08-31.11,76.66-270.41,186.08-298.61Z"/>
        <path class="cls-8" d="m3580.26,506.48s-34.42,93.76,14.42,124.02c0,0,5,22.23,19.36,11.11,0,0,53.71,46.8,68.7,26.91,14.99-19.89,11.87-29.25,11.87-29.25,0,0,15.04-5.68,10.05-44.87,0,0-51.26,5.84-73.33-22.52-18.91-24.3-35.84-90.13-35.84-90.13l-15.23,24.74Z"/>
      </g>
      <g>
        <path class="cls-11" d="m4720.1,1140.7c-1.86-.28-3.3,1.6-2.52,3.31,6.06,13.22,24.86,54.95,21.85,57.25-3.58,2.74-21.29-34.13-25.46-33.69-4.17.45,14.02,35.98,9.71,38.29-4.3,2.31-19.8-30.64-21.95-30.3s9.31,33.5,7.6,36.38c-1.71,2.88-18.26-31.03-21-31.35-2.73-.33.91,26.87-1.39,27.45-2.3.58-3.73,1.35-29.47-57.53l-9.14-23.61,2.94-23.31,27.33-7.14s72.05,40.61,72.3,44.01c.24,3.24-2.23,4.58-30.81.22Z"/>
        <polygon class="cls-13" points="4607.43 1798.06 4631.09 1867.56 4702.34 1850.84 4668.91 1749.68 4607.43 1798.06"/>
        <path class="cls-17" d="m4713.93,1090.02l7.95-4.92-84.15-128.56c-15.01-29.69-27.29-59.17-32.92-86.23-18.86-90.68-33.91-200.48-71.93-256.11-38.02-55.62-67.54-20.8-67.54-20.8-70.24,97.91,35.68,341.98,51.98,371.59,1.43,2.6,3.79,6.13,6.88,10.38l109.05,164.55,20.68-12.79,60-37.11Z"/>
        <polygon class="cls-13" points="4638.71 1136.54 4646.76 1148.06 4723.95 1102.57 4717.35 1087.9 4638.71 1136.54"/>
        <polygon class="cls-13" points="4142.4 1706.78 4110.72 1773 4173.34 1810.87 4220.18 1715.18 4142.4 1706.78"/>
        <g>
          <path class="cls-9" d="m4625.14,1848.94l53.25-10.47c4.3-.84,7.36-4.99,7.34-9.96h0c-.01-3.27,2.12-5.88,4.95-6.05l8.85-.53c5.6-.33,10.72,4.17,11.88,10.45l2.74,14.85,12.35,7.49c13.95,8.46,29.7,11.92,45.04,9.89l16.02-2.12c4.82-.64,9.76.94,13.72,4.39l1.88,1.64c7.49,6.53,12.69,15.85,14.59,26.17h0l-122.93,25.22c-4.19.78-8.55.17-12.56-1.74l-19.31-8.9,2.95,16.02-34.52,6.39-12.04-65.26c-1.61-8.74-1.87-15.96,5.79-17.47Z"/>
          <rect x="4631.42" y="1927.98" width="35.13" height="4.29" transform="translate(-289.81 957.11) rotate(-11.4)"/>
          <path d="m4818.45,1898.14l-126.81,25.57c-1.1.22-2.17-.49-2.39-1.59l-.45-2.21,128.8-25.97.85,4.2Z"/>
        </g>
        <g>
          <path class="cls-9" d="m4111.59,1769.3l47.35,26.52c3.82,2.14,8.84.96,12.04-2.84h0c2.11-2.5,5.43-3.11,7.69-1.4l7.08,5.33c4.48,3.38,5.47,10.12,2.29,15.66l-7.53,13.08,4.56,13.71c5.15,15.49,14.9,28.32,27.91,36.71l13.57,8.76c4.09,2.64,6.83,7.04,7.61,12.23l.37,2.47c1.48,9.82-.6,20.29-5.84,29.39h0l-109.99-60.42c-3.7-2.12-6.62-5.41-8.44-9.46l-8.94-19.29-8.13,14.11-30.43-17.5,33.11-57.51c4.44-7.71,8.92-13.37,15.73-9.55Z"/>
          <rect x="4059.6" y="1844.45" width="35.13" height="4.29" transform="translate(1405.05 -1744.09) rotate(28.98)"/>
          <path d="m4104.85,1896.16h131.39v4.29h-129.37c-1.12,0-2.02-.91-2.02-2.02v-2.26h0Z" transform="translate(1441.79 -1782.85) rotate(28.98)"/>
        </g>
        <polygon class="cls-11" points="4469.58 480.71 4420.55 566.13 4488.03 604.96 4526.25 673.48 4537.03 516.41 4469.58 480.71"/>
        <path class="cls-24" d="m4534.33,563.94l11-58.55-66.53-42-19.87,35.9c10.41,13.06,45.61,54.26,75.41,64.65Z"/>
        <path class="cls-11" d="m4465.75,413.77s9.26-47.73,13.36-50.24c4.1-2.5,56.3-11.03,59.27-11.71,2.96-.68,24.17,29.11,24.17,29.11,0,0,13.79,20.21,12.62,21.25-1.17,1.05-28.61,25.03-29.8,25.25-1.2.22-56.95,37.49-56.95,37.49,0,0-25.72-13.7-24.9-18.62.81-4.92,2.24-32.53,2.24-32.53Z"/>
        <path class="cls-19" d="m4435.56,1156.98c-1.55-18.04-98.41-117.46-98.41-117.46l-16.83,121.74c-9.99,72.27-27.74,143.26-52.92,211.73l-53.67,145.91-116.85,232.48,104,48.58c75.33-81.02,213.18-307.98,213.18-307.98l60.54-139.57s-37.46-177.38-39.02-195.42Z"/>
        <polygon class="cls-13" points="4426.09 536.45 4450.65 514.02 4545.32 585.04 4542.68 594.5 4500.46 600.44 4426.09 536.45"/>
        <path class="cls-17" d="m4714.37,1815.66s-94.09-428.85-96.02-440.45c-8.25-49.62-99.91-373.4-95.91-398.71l-170.09-9.76-37.93,58.78s-27.61,117.66,62.36,212.89c12.65,13.39,38.88,106.73,47.05,123.01l-17.84-76.54,48.47,208.01c32.52,126.11,97.86,290.65,140.93,351.26l118.97-28.5Z"/>
        <path class="cls-10" d="m4426.09,536.45s-42.9,31.01-70.25,79.39c-27.35,48.38-67.81,375.8-59.9,493.9,0,0,103.84,52.79,286.12,51.47,0,0-1.93-508.65-39.39-566.71l-116.59-58.06Z"/>
        <path class="cls-17" d="m4405.05,1126.27l9.3-.9-18.75-152.51c-.37-33.27,1.63-65.14,8.53-91.91,23.11-89.69,58.09-194.86,48.53-261.55-9.56-66.69-51.42-48.48-51.42-48.48-106.25,56.84-118.97,322.6-117.41,356.37.14,2.96.7,7.18,1.59,12.36l25.2,195.79,24.21-2.35,70.22-6.81Z"/>
        <polygon class="cls-13" points="4317.03 1134.81 4319.16 1148.7 4408.51 1141.96 4409.06 1125.88 4317.03 1134.81"/>
        <path class="cls-17" d="m4414.08,978.98c19.27,3.25,63.77,10.44,88.4,11.87,4.24.25,7.55,3.73,7.55,7.98v.72c0,4.75-4.11,8.45-8.83,7.95-19.99-2.11-68.65-7.59-90.35-12.88-3.58-.87-6.09-4.08-6.09-7.77h0c0-4.95,4.44-8.7,9.32-7.88Z"/>
        <g>
          <g>
            <path class="cls-14" d="m4448.74,1251.24l-11.99.2-.53-31.77c-.13-8.01-6.76-14.41-14.76-14.28l-119.71,2.01c-8.01.13-14.41,6.76-14.28,14.76l.53,31.77-11.99.2-.53-31.77c-.25-14.62,11.45-26.71,26.07-26.96l119.71-2.01c14.62-.25,26.71,11.45,26.96,26.07l.53,31.77Z"/>
            <path class="cls-20" d="m4298.02,1250.4l-32.15.54-.13-7.83c-.01-.68.53-1.25,1.22-1.26l29.68-.5c.68-.01,1.24.53,1.26,1.21l.13,7.83Z"/>
            <path class="cls-20" d="m4458.77,1247.71l-32.15.54-.13-7.83c-.01-.68.53-1.25,1.21-1.26l29.68-.5c.68-.01,1.24.53,1.26,1.21l.13,7.83Z"/>
          </g>
          <g>
            <path class="cls-14" d="m4206.97,1550.03c440.33-10.97,357.35,62.28,364.85-246.94l-417.38,1.74c3.82,188.65-17.24,238.54,52.53,245.2Z"/>
            <path class="cls-12" d="m4161.06,1360.26c.08-.03,346.1-1.42,398.13-1.66,29.17-1.11,24.72-7.45,24.61-70.03,2.55-64.99,6.95-34.41-390.37-39.37-40.48,1.2-54.61-8.89-51.07,44.71,1.61,38.56-7.14,63.89,18.7,66.35Z"/>
            <rect class="cls-20" x="4280.08" y="1345.12" width="152.24" height="28.66" transform="translate(-5.64 18.2) rotate(-.24)"/>
          </g>
        </g>
        <path class="cls-11" d="m4399.86,1159.48l-9.71-19.56c-20.15,4.52-43.15,7.11-49.77,7.39-1.97,7.27-5.3,22.24-5.3,22.24-2.72,13.96-4.88,24.76-6.57,33.18h0s-.3,7.29,8.9,8.74c.51.08,1.94-.32,2.39-.94.83-1.16,2.14-2.71,2.85-2.13.43.35.54,2.05.5,4.52v.47s4.31,7.83,12.18,2.97c0,0,2.06-4.37,2.52-4.15.46.22.51,2.24.38,5.19l.3.69s4.4,5.76,10.9,2.23l.54-.27c1.4-4.82,2.71-8.05,3.88-7.42.93.51,1.08,1.99,1.25,5.31l.06,1.97s3.47,6.89,11.42,1.01c2.2-10.93,4.16-21.42,5.2-27.28.36-2.02,2.83-2.82,4.33-1.41.68.64,1.29,1.2,1.93,1.81l18.76-.31c-4.75-9.63-11.12-22.05-16.94-34.25Z"/>
        <path class="cls-17" d="m4565.77,807.92c0,3.83-3.1,6.93-6.93,6.93s-6.93-3.1-6.93-6.93,3.1-6.93,6.93-6.93,6.93,3.1,6.93,6.93Z"/>
        <path class="cls-17" d="m4568.41,861.28c0,3.83-3.1,6.93-6.93,6.93s-6.93-3.1-6.93-6.93,3.1-6.93,6.93-6.93,6.93,3.1,6.93,6.93Z"/>
        <path class="cls-17" d="m4572.7,917.47c0,3.83-3.1,6.93-6.93,6.93s-6.93-3.1-6.93-6.93,3.1-6.93,6.93-6.93,6.93,3.1,6.93,6.93Z"/>
        <path class="cls-17" d="m4575.34,978.86c0,3.83-3.1,6.93-6.93,6.93s-6.93-3.1-6.93-6.93,3.1-6.93,6.93-6.93,6.93,3.1,6.93,6.93Z"/>
        <path class="cls-11" d="m4482.4,470.14s9.3,34.33,44.83,55.55c35.54,21.23,71.07,8.18,76.95,4.56,2.73-1.68,10.76-55.68,10.76-55.68,0,0,14.39-6.33,18.61-12.35,0,0-17.21-20.09-18.44-30.19-1.24-10.1,7.66-72.29-37.44-102.48-45.09-30.19-63.65,33.95-63.65,33.95l-11.25,65.6-20.37,41.04Z"/>
        <path class="cls-9" d="m4582.49,433.39c2.08,3.01,6.21,3.76,9.23,1.67,3.01-2.09,3.76-6.22,1.68-9.23-2.08-3.01-6.21-3.75-9.23-1.67s-3.76,6.22-1.68,9.23Z"/>
        <path class="cls-8" d="m4569.4,411.99c5.28-2.16,10.63-3.78,16.27-3.48,8.15.53,13.01,3.93,15.85,5.03-4.02-5.99-9.38-8.84-15.66-9.2-6.88-.36-13.33,3.14-16.46,7.65Z"/>
        <path class="cls-24" d="m4610.68,495.89c.28.04.57.06.85.09l.52-3.16c-.23-.07-.47-.14-.7-.21-3.06-1-6.03-2.18-8.82-3.79-2.81-1.57-5.52-3.35-8.17-5.32-2.66-1.96-5.25-4.08-7.95-6.31,1.27,3.3,3.34,6.19,5.71,8.8,2.4,2.58,5.22,4.82,8.35,6.57,3.11,1.8,6.65,2.88,10.2,3.34Z"/>
        <path class="cls-8" d="m4623.56,303.06c-17.89-9.16-50.47-16.51-83.07-15.16,7.26-5.66,11.64-10.08,9.64-11.38-16.27-10.56-65.08,22.09-80.61,33.05-3.3-3.88-14.64-15.72-25.31-9.3-12.65,7.61,12.74,16.73,12.74,16.73,0,0-17.54,3.05-21.09,12.69-2.62,7.12,8.11,5.19,13.88,3.7-1.81.71-4.29,2.2-6.89,4.65h0s-23.25,21.48-20.27,32.93c.72,2.76,3.14,2.86,6.4,1.43-2.2,12.19-5.69,35.23-1.22,37.95,2.56,1.56,4.84.08,6.64-2.17,4.34,18.14,10.24,32.24,10.24,32.24,20.99-4.75,40.11,17,40.11,17-6.58-28.12,11.07-83.12,11.07-83.12,0,0,82.99,28.87,68.18,5.89,0,0,96.85,26.16,74.05-18.29,0,0,35.96-4.75-8.8-37.86,0,0,26.31-4.58-5.71-20.96Z"/>
        <path class="cls-11" d="m4492.99,444.13c4.69,15.56-2.57,31.51-16.23,35.62-13.66,4.11-28.53-5.17-33.23-20.73-4.69-15.56,2.57-31.51,16.23-35.62,13.66-4.11,28.53,5.17,33.23,20.73Z"/>
      </g>
      <g>
        <path class="cls-8" d="m5227.28,905.81c-19.96,9.07-43.48.24-52.55-19.71-9.07-19.95-.24-43.48,19.71-52.55,19.96-9.07,43.48-.24,52.55,19.71,9.07,19.95.24,43.48-19.71,52.55Z"/>
        <path class="cls-7" d="m5468.91,1510.43c0,30.6-24.8,55.4-55.4,55.4s-55.4-24.8-55.4-55.4,24.8-55.4,55.4-55.4,55.4,24.8,55.4,55.4Z"/>
        <path class="cls-7" d="m5456,1826.51c5.84,10.4,2.15,23.57-8.25,29.41-10.4,5.84-23.57,2.15-29.41-8.25-5.84-10.4-2.15-23.57,8.25-29.41,10.4-5.84,23.57-2.15,29.41,8.25Z"/>
        <path class="cls-22" d="m5350.96,1227.09l10.5,239.01s71.85,48.45,131.74,20.62l-6.96-300.14-4.55-78.86-22.29-16.85-65.57,19.07h0c-29.33,31.77-44.75,73.94-42.86,117.14Z"/>
        <path class="cls-22" d="m5440.75,1834.43c-19.25,6.83-40.03-5.45-43.94-25.5-12.11-62.16-42.49-218.57-45.71-239.43-1.57-10.17,3.2-17.98,9.61-23.73,8.99-8.07,22.43-7.48,31.78.15,7.59,6.2,22.35,7.92,50.43-15.02,51.06-41.7,54.39-15.79,54.39-15.79,0,0-51.62,169.83-34.28,281.94,2.46,15.9-6.32,31.47-21.41,37.05-.29.11-.58.21-.88.32Z"/>
        <path class="cls-22" d="m5556.68,1904.66c-13.53,1.56-47.61-20.29-63.06-26.75-6.9-2.88-15.46-12.92-22.82-23.15-4.13-5.74-10.56-9.39-17.62-9.95l-27.15-2.14c-14.3-1.12-26.28,10.7-25.34,25.02h0s-7.25,25.88-4.92,35.28c2.33,9.41,25.41,21.55,46.84,14.32,21.42-7.24,59.29,21.36,77.17,18.33,17.88-3.03,48.39-19.07,50.62-23.65,2.23-4.58-.19-8.88-13.71-7.31Z"/>
        <path class="cls-8" d="m5186.9,1122.88c-9.87,4.48-21.5.12-25.99-9.75-4.48-9.87-.12-21.5,9.75-25.99,9.87-4.48,21.5-.12,25.99,9.75,4.48,9.87.12,21.5-9.75,25.99Z"/>
        <path class="cls-4" d="m5417.06,621.42s-30.48-33.42-81.05-.82c-50.57,32.61-162.56,187.95-149.06,215.79,13.5,27.83,61.84,54.03,71.88,44.19,10.04-9.85,164.66-159.04,173.85-179.92,9.19-20.88,12.08-51.91-15.63-79.24Z"/>
        <path class="cls-8" d="m5293.8,871.1c-62.32-71.22-91.26-145.67-86.01-221.27,4.31-62.08,31.44-113.12,53.43-145.01,23.8-34.51,46.34-54.17,47.28-54.99l7.97,9.21c-.89.77-88.73,78.18-96.55,191.76-4.97,72.21,22.96,143.64,83.04,212.29l-9.16,8.02Z"/>
        <path class="cls-8" d="m5335.92,867.44c-54.41-62.18-79.68-127.18-75.1-193.19,3.76-54.2,27.45-98.77,46.65-126.61,20.78-30.13,40.46-47.29,41.28-48.01l6.96,8.04c-.77.67-77.47,68.26-84.29,167.42-4.34,63.05,20.05,125.41,72.5,185.35l-8,7Z"/>
        <path class="cls-1" d="m5312.69,410.73l-13.63,30.3c-1.61,6.28-.31,12.95,3.53,18.17l7.94,10.78c4.07,5.53,10.53,8.8,17.4,8.8h34.18l-49.41-68.06Z"/>
        <path class="cls-1" d="m5346.19,476.85l-4.6,12.36c-1.39,3.73-1.31,7.85.22,11.52l6.82,16.39c1.77,4.24,5.3,7.5,9.67,8.92l1.52.49,13.05-8.33-26.67-41.36Z"/>
        <path class="cls-8" d="m5451.52,487.68l-104.29-4.27,14.87,34.42-16.84,64.13c-3.17,12.07-13.45,20.66-25.8,22.44-.05,0-.09.01-.14.02-10.05,1.55-85.04,157.72-27.28,297.14l61.39-287.77c13.22-7.14,32.21-11.99,55.57-3.18,47.16,17.78,71.9,24.74,71.9,24.74l4.64-80.41-34.02-67.26Z"/>
        <path class="cls-18" d="m5557.32,503.44l-17.71-49.09,6.83-12.88c3.49-6.58,3.87-14.37.99-21.24-11.01-26.25-44.3-90.02-111.82-102.83-6.41-1.36-13.04-2.1-19.83-2.19-.4-.01-.8-.02-1.21-.03-.05,0-.11,0-.16,0-.01,0-.02,0-.03,0-2.29-.05-4.6-.06-6.95,0l.05.26c-53.06,3.57-95,47.71-95,101.67s45.64,101.93,101.93,101.93c2.19,0,4.37-.07,6.53-.21,8.03-.52,14.88,5.73,14.88,13.78h0c0,12.12,6.07,23.5,16.28,30.04,13.93,8.92,37.32,18.65,72.16,17.36l13.96-68.42,13.7-.29c4.02-.09,6.76-4.09,5.4-7.87Z"/>
        <path class="cls-4" d="m5167.5,854.85s32.05-3.81,42.72,19.65c10.66,23.46,25.48,29.9,25.48,29.9l-32.23,183.21s-23.5,18.04-44.49-.73c-20.98-18.77,8.53-232.03,8.53-232.03Z"/>
        <path class="cls-4" d="m5193.04,1166.22c.65-1.59,2.8-1.8,3.77-.38,14.98,21.77,17.42,22.58,19.43,20.39,1.62-1.76-8.59-45.29-13.45-65.53-1.06-4.43-5.73-6.97-10.01-5.4-5.39,1.98-13.7,2.77-25.06-2.39-3.79-1.72-8.26-.1-10.06,3.64l-6.58,13.72c-23.13,53.99-21.71,54.46-19.89,55.63,1.83,1.17,17.67-18.28,19.16-16.25,1.49,2.02-10.75,34.26-7.75,33.6,2.99-.66,17.91-29.05,19.48-27.83s-10.69,32.16-6.45,33.58c4.24,1.42,16.53-32.93,19.43-30.43,2.9,2.5-10.58,37.37-6.51,38.04,3.42.56,19.47-38.09,24.48-50.39Z"/>
        <path class="cls-7" d="m5287.3,859.58s27.38,15.18,40.52,41.98c13.14,26.8,43.32,72.95,43.32,72.95,0,0,64.59-8.66,98.38-28.95l24.66-12.56,13.77,47.93-32.47,126.79-158.49-13.92-29.7-234.23Z"/>
        <path class="cls-8" d="m5467.71,416.65c0,32.52-26.36,58.88-58.88,58.88s-58.88-26.36-58.88-58.88,26.36-58.88,58.88-58.88,58.88,26.36,58.88,58.88Z"/>
        <circle class="cls-18" cx="5408.83" cy="416.65" r="43.05" transform="translate(166.99 1813.85) rotate(-19.33)"/>
        <path class="cls-8" d="m5501.34,451.21s23.74-10.82,33.51-11.17l-3.14,19.66-30.37-8.49Z"/>
        <path class="cls-8" d="m5559.25,941.25c0,21.92-17.77,39.69-39.69,39.69s-39.69-17.77-39.69-39.69,17.77-39.69,39.69-39.69,39.69,17.77,39.69,39.69Z"/>
        <path class="cls-8" d="m5740.16,1067.82c0,10.84-8.79,19.63-19.62,19.63s-19.63-8.79-19.63-19.63,8.79-19.62,19.63-19.62,19.62,8.79,19.62,19.62Z"/>
        <path class="cls-18" d="m5293.81,912.9s-34.38-193.27,30.55-281.64c24.5-33.34,68.86-45.02,106.97-28.93,31.88,13.46,73.71,42.61,102.92,105.69,53.35,115.2,18.55,191.74-22.03,214.93-40.59,23.19-192.9,109.01-218.41-10.05Z"/>
        <path class="cls-4" d="m5378.85,650.81s-43.04,13.92-34.28,73.45c8.76,59.53,103.86,225.75,134.78,224.98,30.92-.77,74.78-33.95,69.97-47.16-4.81-13.22-76.67-215.7-91.87-232.71-15.21-17.01-42.26-32.47-78.6-18.56Z"/>
        <path class="cls-8" d="m5459.26,718.59c0,25.9-21,46.9-46.9,46.9s-46.9-21-46.9-46.9,21-46.9,46.9-46.9,46.9,21,46.9,46.9Z"/>
        <path class="cls-18" d="m5446.54,718.59c0,18.88-15.31,34.19-34.19,34.19s-34.19-15.31-34.19-34.19,15.31-34.19,34.19-34.19,34.19,15.31,34.19,34.19Z"/>
        <path class="cls-4" d="m5488.12,974.58s9.79-30.76,35.56-30.76,37.76-10.82,37.76-10.82l153.46,105.15s6.7,28.86-19.07,40.2c-25.77,11.34-207.71-103.77-207.71-103.77Z"/>
        <path class="cls-4" d="m5782.16,1080.16c-1.18-1.25-.48-3.29,1.21-3.59,26.02-4.63,27.76-6.51,26.6-9.25-.93-2.2-44.79-10.92-65.22-14.87-4.47-.87-8.72,2.33-9.06,6.88-.43,5.72-3.14,13.62-12.54,21.82-3.13,2.74-3.51,7.47-.84,10.66l9.76,11.67c39.58,43.39,40.6,42.3,42.42,41.12,1.82-1.18-9.33-23.65-6.87-24.17,2.46-.52,26.75,23.96,27.39,20.96.64-3-19.04-28.32-17.27-29.25,1.76-.93,24.86,23.03,27.9,19.77,3.04-3.27-23.14-28.67-19.66-30.28,3.47-1.61,29.64,25.09,31.93,21.67,1.93-2.88-26.62-33.48-35.75-43.13Z"/>
        <path class="cls-8" d="m5493.97,578.19c.98-5.9,3.25-20.07,5.01-34.82,4.29-35.84,2.19-44.63-.43-48.49-6.83-10.08-41.34-40.53-45.25-43.97l-7.26,8.26c10.34,9.09,38.29,34.32,43.37,41.81,3.08,5.69-.76,42.63-6.2,74.93,3.39.87,6.97,1.64,10.76,2.27Z"/>
        <g>
          <path class="cls-7" d="m5346.03,1518.75c-3.76,30.37-31.42,51.94-61.79,48.18-30.37-3.76-51.94-31.42-48.18-61.78,3.76-30.37,31.42-51.94,61.79-48.18,30.37,3.76,51.94,31.42,48.18,61.78Z"/>
          <path class="cls-7" d="m5130.6,1775.88c-1.46,11.84-12.25,20.25-24.09,18.79-11.84-1.46-20.25-12.25-18.79-24.09,1.46-11.84,12.25-20.25,24.09-18.79,11.84,1.46,20.25,12.25,18.79,24.09Z"/>
          <path class="cls-18" d="m5263.74,1223.08l-18.92,238.49s65.36,56.9,128.21,36.63l88.73-297.13,3.3-51.4-76.99-48.47-67.41,10.88h0c-33,27.93-53.49,67.89-56.91,110.99Z"/>
          <path class="cls-1" d="m5419.07,1232.39c-5.14,41.57-37.84,71.75-73.03,67.4-35.19-4.35-59.55-41.58-54.41-83.16,5.14-41.57,37.84-71.75,73.03-67.4,35.19,4.35,59.55,41.58,54.41,83.16Z"/>
          <path class="cls-18" d="m5406.11,1230.78c-4.1,33.11-30.14,57.15-58.17,53.68s-47.43-33.12-43.34-66.23c4.09-33.11,30.14-57.15,58.17-53.68,28.03,3.47,47.43,33.12,43.34,66.23Z"/>
          <path class="cls-18" d="m5113.62,1773.21c-19.55-5.92-28.99-28.14-20.24-46.59,27.13-57.22,95.45-201.17,105.23-219.87,4.77-9.12,13.24-12.58,21.82-13.41,12.02-1.16,22.49,7.28,25.5,18.98,2.44,9.49,13.3,19.63,49.51,17.83,65.84-3.28,53.15,19.56,53.15,19.56,0,0-142.3,106.1-194.85,206.64-7.45,14.26-23.76,21.59-39.22,17.13-.3-.09-.6-.17-.9-.26Z"/>
          <path class="cls-18" d="m5165.29,1898.52c-11.82-6.77-26.29-44.58-34.9-58.95-3.84-6.41-4.78-19.57-4.64-32.18.08-7.08-2.93-13.83-8.28-18.46l-20.59-17.82c-10.85-9.39-27.51-6.98-35.24,5.11h0s-21.19,16.53-24.89,25.48c-3.7,8.95,7.67,32.43,29.21,39.31,21.54,6.88,35.06,52.37,51.25,60.54,16.19,8.17,50.27,13.36,54.78,10.99,4.51-2.36,5.12-7.26-6.7-14.02Z"/>
        </g>
        <path class="cls-4" d="m5298.45,1095.16l-6.08-36.26c-2.22-13.27,6.53-25.9,19.75-28.42,1.2-.23,2.44-.46,3.72-.67,58.79-10.04,118.46,12.26,157.11,57.68h0c12.9,15.16,16.73,36.05,10.05,54.8l-21.16,59.38s-.02-.2-.07-.58c-8.52-64.84-79.78-101.21-137.05-69.64-8.73,4.81-17.74,10.57-26.88,17.46-4.21,3.17-10.27.76-11.13-4.43l-3.29-19.99c-1.98-12.02,4.12-23.92,15.04-29.32h0Z"/>
      </g>
    </g>
  </g>
</svg>